<svg xmlns="http://www.w3.org/2000/svg" viewBox="0 0 1124 652"><path fill="white" d="m368 129v165h52V129zM250 349H114v48h84v117h52zm32 0v48h86v117h52V349zm170 0v48h52v-48zm336 0v48h52v-48zm84 0v165h52V397h84v-48zm-336 0v245h52V349zm84 0v165h52V349zm84 0v245h52V349zm-590 80v165h52V429zm168 0v165h54V429zm506 0v85h52v-85zm168 0v117h-84v48h136V429zM368 546v48h52v-48zm420 0v48h52v-48zM114 294h52V49h-52zm84-245v167h52V49zm84 0v245h54V49zm86 0v48h52V49zm84 48h136V49H452zm0 32v165h52V129zm0 465h52V429h-52z"/></svg>